<mxfile host="app.diagrams.net" modified="2023-09-26T15:01:20.762Z" agent="Mozilla/5.0 (X11; Linux x86_64) AppleWebKit/537.36 (KHTML, like Gecko) Chrome/112.0.0.0 Safari/537.36" version="21.8.0" etag="LWHOT4bnF0jW86RlMaM0" type="github">
  <diagram name="Page-1" id="zyP7zYPqZNlakAZ1SdfN">
    <mxGraphModel>
      <root>
        <mxCell id="0" />
        <mxCell id="1" parent="0" />
      </root>
    </mxGraphModel>
  </diagram>
</mxfile>
